<svg xmlns="http://www.w3.org/2000/svg" xmlns:xlink="http://www.w3.org/1999/xlink" width="1300px" height="600px" viewBox="-0.165563 -0.0762987 1300.33 600.152" preserveAspectRatio="xMidYMid meet" ><defs id="svgEditorDefs"><polygon id="svgEditorShapeDefs" fill="khaki" stroke="black" style="vector-effect: non-scaling-stroke; stroke-width: 1px;"/></defs><rect id="svgEditorBackground" x="0" y="0" width="1300" height="600" style="fill: none; stroke: none;"/><text dy="-0.5em" fill="black" id="e166_texte" style="font-family: Arial; font-size: 20px;" transform="matrix(0.33703 0 0 0.33703 111.003 59.7154)" x=""><textPath id="e165_textPath" xlink:href="#e136_shape">epics</textPath></text><text dy="-0.5em" fill="black" id="e251_texte" style="font-family: Arial; font-size: 20px;" transform="matrix(0.33703 0 0 0.33703 111.003 59.7154)" x=""><textPath id="e250_textPath" xlink:href="#e136_shape">T</textPath></text><text dy="-0.5em" fill="black" id="e296_texte" style="font-family: Arial; font-size: 20px;" transform="matrix(0.33703 0 0 0.33703 111.003 59.7154)" x=""><textPath id="e295_textPath" xlink:href="#e136_shape">T</textPath></text><path d="M288.2843144682357,-120.44183655082236h22.22199999999998v32l32,-32h54.22199999999998c5.399999999999977,0,9.77800000000002,-4.378,9.77800000000002,-9.77800000000002v-76.445c0,-5.400000000000006,-4.377999999999986,-9.77800000000002,-9.77800000000002,-9.77800000000002h-108.445c-5.400000000000034,0,-9.777999999999963,4.377999999999986,-9.777999999999963,9.77800000000002v76.445c0,5.400000000000006,4.378000000000043,9.778000000000006,9.77800000000002,9.778000000000006Z" id="e340_shape" style="vector-effect: non-scaling-stroke; stroke-width: 1px;" fill="khaki" transform="matrix(0.277424 0 0 0.277424 123.949 99.3605)"/><text fill="black" x="110.2" y="124.2" id="e369_texte" style="font-family: Arial; font-size: 20px;" transform="matrix(0.33703 0 0 0.33703 111.003 59.7154)"/><text fill="black" x="252.535" y="-47.1338" id="e412_texte" style="font-family: Arial; font-size: 20px;" transform="matrix(0.605018 0 0 0.605018 52.7811 85.4296)" dy="" dx="">epics</text><path d="M279.39765420984924,228.73730765281482h22.22199999999998v32l32,-32h54.22199999999998c5.399999999999977,0,9.77800000000002,-4.377999999999986,9.77800000000002,-9.77800000000002v-76.445c0,-5.400000000000006,-4.377999999999986,-9.777999999999992,-9.77800000000002,-9.777999999999992h-108.445c-5.399999999999977,0,-9.77800000000002,4.378000000000014,-9.77800000000002,9.777999999999992v76.445c0,5.400000000000034,4.378000000000043,9.77800000000002,9.77800000000002,9.77800000000002Z" id="e582_shape" style="vector-effect: non-scaling-stroke; stroke-width: 1px;" fill="khaki" transform="matrix(0.427914 0 0 0.427914 78.9517 67.0268)"/><text fill="black" x="307.199" y="242.2" id="e663_texte" style="font-family: Arial; font-size: 20px;" transform="matrix(0.753222 0 0 0.753222 -23.3997 -43.3734)" dy="" dx="">user</text><text fill="black" x="299.199" y="265.199" id="e679_texte" style="font-family: Arial; font-size: 20px;" transform="matrix(0.693516 0 0 0.693516 -7.69696 -27.7687)">stories</text><g transform="matrix(0.389218 0 0 0.389218 198.255 219.274)" stroke="black" id="e695_shape" style="vector-effect: non-scaling-stroke; stroke-width: 1px;" fill="khaki"><path d="M17.778,0c-5.4,0,-9.778,4.378,-9.778,9.778v108.445c0,5.400000000000006,4.378,9.778000000000006,9.778,9.778000000000006h84.445c5.400000000000006,0,9.778000000000006,-4.378,9.778000000000006,-9.778000000000006v-86.222h-22.221999999999994c-5.400000000000006,0,-9.778000000000006,-4.378,-9.778000000000006,-9.777999999999999v-22.222h-62.222Z"/><path d="M88 0v24h24z"/></g><g id="e2135_group" font-size="20px" transform="matrix(1 0 0 1 -18.2842 -10.7554)"><text fill="black" x="282.2" y="373.2" id="e721_texte" style="font-family: Arial; font-size: 20px;" transform="matrix(0.652499 0 0 0.652499 41.1309 17.0095)">use</text><text fill="black" x="275.2" y="399.2" id="e795_texte" style="font-family: Arial; font-size: 20px;" transform="matrix(0.645468 0 0 0.645468 45.7477 13.8996)">cases</text></g><g transform="matrix(0.174013 0 0 0.174013 121.456 111.601)" stroke="black" id="e1225_shape" style="vector-effect: non-scaling-stroke; stroke-width: 1px;" fill="khaki"/><text fill="black" x="-635.814" y="-318.809" id="e1451_texte" style="font-family: Arial; font-size: 20px;" transform="matrix(0.487025 0 0 0.487025 423.935 230.231)">WIS 2.0</text><text fill="black" x="-15.8013" y="314.2" id="e1496_texte" style="font-family: Arial; font-size: 20px;" transform="matrix(0.428339 0 0 0.428339 106.379 52.833)">new functions</text><text fill="black" x="22.2" y="236.2" id="e1598_texte" style="font-family: Arial; font-size: 20px;" transform="matrix(0.428339 0 0 0.428339 89.2446 40.8394)">UX improvements</text><path d="M-855.5056889636573,374.2258840200345l37.49300000000005,-37.492999999999995c20.706999999999994,-20.706999999999994,20.706999999999994,-54.28000000000003,0,-74.98700000000002s-54.27999999999997,-20.706999999999994,-74.98699999999997,0s-20.706999999999994,54.27999999999997,0,74.98699999999997l37.49400000000003,37.492999999999995ZM-874.2516889636573,280.4918840200346c10.354000000000042,-10.353999999999985,27.139999999999986,-10.353999999999985,37.49300000000005,0s10.354000000000042,27.13900000000001,0,37.492999999999995s-27.140999999999963,10.353999999999985,-37.49300000000005,0c-10.354000000000042,-10.353000000000009,-10.354000000000042,-27.13900000000001,0,-37.492999999999995Z" stroke="black" id="e1693_shape" style="vector-effect: non-scaling-stroke; stroke-width: 1px;" fill="green" transform="matrix(0.334258 0 0 0.334258 418.571 128.864)"/><path d="M-271.0917986445515,-295.6460314685679c-0.07599999999996497,0,-0.15000000000003413,0.005000000000009663,-0.22599999999999917,0.005000000000009663c-1.9869999999999663,-18.001999999999995,-17.242999999999995,-32.005,-35.774,-32.005s-33.78699999999998,14.003999999999998,-35.774,32.005c-0.07600000000002184,0,-0.1499999999999773,-0.005000000000009663,-0.22599999999999917,-0.005000000000009663c-15.463999999999999,0,-28,12.536000000000001,-28,28s12.536000000000001,28,28,28h72c15.463999999999999,0,28,-12.536000000000001,28,-28s-12.536000000000001,-28,-28,-28ZM-299.0917986445515,-279.6460314685679v24h-16v-24h-16l24,-24l24,24h-16Z" stroke="black" id="e1727_shape" style="vector-effect: non-scaling-stroke; stroke-width: 1px;" fill="lightgray" transform="matrix(0.412492 0 0 0.412492 258.146 162.986)"/><path d="M10.834179583722278,24.04395929270332l1.25,1.25a1,1,0,0,0,1.25,-1.25l-2.5,-3.75a2,2,0,0,0,-2.5,0l-2.5,3.75a1,1,0,0,0,1.25,1.25l1.25,-1.25v3.125a1,1,0,0,0,2.5,0Z" id="e2655_shape" style="vector-effect: non-scaling-stroke; stroke-width: 1px;" fill="khaki" transform="matrix(0.0574956 3.25287 -3.25287 0.0574956 254.262 96.5723)"/><g id="e775_group"><path d="M18.43615703798622,29.028395485614332l1.25,1.25a1,1,0,0,0,1.25,-1.25l-2.5,-3.75a2,2,0,0,0,-2.5,0l-2.5,3.75a1,1,0,0,0,1.25,1.25l1.25,-1.25v3.125a1,1,0,0,0,2.5,0Z" id="e2681_shape" style="vector-effect: non-scaling-stroke; stroke-width: 1px;" fill="khaki" transform="matrix(0.0574956 3.25287 -3.25287 0.0574956 267.744 106.009)"/><path d="M40.294162559583214,29.997293873431012l1.25,1.25a1,1,0,0,0,1.25,-1.25l-2.5,-3.75a2,2,0,0,0,-2.5,0l-2.5,3.75a1,1,0,0,0,1.25,1.25l1.25,-1.25v3.125a1,1,0,0,0,2.5,0Z" id="e148_shape" style="vector-effect: non-scaling-stroke; stroke-width: 1px;" fill="khaki" transform="matrix(0.0574956 3.25287 -3.25287 0.0574956 267.744 106.009)"/></g><path d="M30.629627530973437,42.92235624573038l1.25,1.25a1,1,0,0,0,1.25,-1.25l-2.5,-3.75a2,2,0,0,0,-2.5,0l-2.5,3.75a1,1,0,0,0,1.25,1.25l1.25,-1.25v3.125a1,1,0,0,0,2.5,0Z" id="e2707_shape" style="vector-effect: non-scaling-stroke; stroke-width: 1px;" fill="khaki" transform="matrix(-3.25324 0.0394749 -0.0313445 -4.09709 317.5 272.356)"/><path d="M30.808713097510477,11.708778906490792l1.25,1.25a1,1,0,0,0,1.25,-1.25l-2.5,-3.75a2,2,0,0,0,-2.5,0l-2.5,3.75a1,1,0,0,0,1.25,1.25l1.25,-1.25v3.125a1,1,0,0,0,2.5,0Z" id="e2813_shape" style="vector-effect: non-scaling-stroke; stroke-width: 1px;" fill="khaki" transform="matrix(-3.25324 0.0313445 -0.0313445 -3.25324 317.5 230.46)"/><text fill="black" x="-6.13975" y="594.212" id="e1_texte" style="font-family: Arial; font-size: 20px;" transform="matrix(0.676605 0 0 0.676605 81.8133 -133.511)">core GeoNetwork</text><path d="M28.607109969064567,-11.867120825415157l1.25,1.25a1,1,0,0,0,1.25,-1.25l-2.5,-3.75a2,2,0,0,0,-2.5,0l-2.5,3.75a1,1,0,0,0,1.25,1.25l1.25,-1.25v3.125a1,1,0,0,0,2.5,0Z" id="e174_shape" style="vector-effect: non-scaling-stroke; stroke-width: 1px;" fill="khaki" transform="matrix(-5.26358 0.0490695 -0.0507138 -5.09291 363.249 236.868)"/><g transform="matrix(0.478654 0 0 0.478654 197.862 328.559)" stroke="black" id="e214_shape" style="vector-effect: non-scaling-stroke; stroke-width: 1px;" fill="khaki"><path d="M7.999 4c0-2.209-1.791-4-4-4s-4 1.791-4 4v124h8v-124z"/><path d="M62.221 16h-46.222v64h56v6.222c0 5.4 4.378 9.778 9.778 9.778h36.445c5.4 0 9.778-4.378 9.778-9.778v-44.444c0-5.4-4.378-9.778-9.778-9.778h-46.222v-6.222c0-5.4-4.378-9.778-9.778-9.778z" fill="red"/></g><path d="M72.33484796299403,25.13668148170371l1.25,1.25a1,1,0,0,0,1.25,-1.25l-2.5,-3.75a2,2,0,0,0,-2.5,0l-2.5,3.75a1,1,0,0,0,1.25,1.25l1.25,-1.25v3.125a1,1,0,0,0,2.5,0Z" id="e285_shape" style="vector-effect: non-scaling-stroke; stroke-width: 1px;" fill="khaki" transform="matrix(0.0574956 3.25287 -3.25287 0.0574956 248.196 125.557)"/><g transform="matrix(0.246838 0 0 0.246838 109.549 293.103)" stroke="black" id="e403_shape" style="vector-effect: non-scaling-stroke; stroke-width: 1px;" fill="khaki"><path d="M7.999 4c0-2.209-1.791-4-4-4s-4 1.791-4 4v124h8v-124z" id="e403_path"/><path d="M62.221000000000146,5.149256076069037h-46.222v64h56v6.222c0,5.4,4.378,9.778,9.778,9.778h36.445c5.4,0,9.778,-4.378,9.778,-9.778v-44.444c0,-5.4,-4.378,-9.778,-9.778,-9.778h-46.222v-6.222c0,-5.4,-4.378,-9.778,-9.778,-9.778Z" id="e404_path" fill="red" style=""/></g><path d="M72.39344316875844,-29.377051090654163c-17.673000000000002,0,-32,14.327,-32,32v24h-8c-4.550000000000001,0.8370000000000034,-8,4.8160000000000025,-8,9.608999999999995v52.613c0,5.400000000000006,4.378,9.778000000000006,9.777999999999999,9.778000000000006h76.445c5.400000000000006,0,9.778000000000006,-4.378,9.778000000000006,-9.778000000000006v-52.613c0,-4.792000000000002,-3.450000000000003,-8.771999999999998,-8,-9.609000000000002h-8v-24c0,-17.673000000000002,-14.326999999999998,-32,-32,-32ZM48.39344316875844,2.622948909345837c0,-13.255000000000003,10.745000000000005,-24,24,-24s24,10.745000000000001,24,24v24h-48v-24ZM76.39344316875844,65.54394890934584v9.078999999999994c0,2.209000000000003,-1.7909999999999968,4,-4,4s-4,-1.7909999999999968,-4,-4v-9.079000000000008c-2.389000000000003,-1.3840000000000003,-4,-3.9620000000000033,-4,-6.9210000000000065c0,-4.418999999999997,3.581000000000003,-8,8,-8s8,3.581000000000003,8,8c0,2.959000000000003,-1.6110000000000042,5.537000000000006,-4,6.9210000000000065Z" stroke="black" id="e465_shape" style="vector-effect: non-scaling-stroke; stroke-width: 1px;" fill="red" transform="matrix(0.319104 0 0 0.319104 102.33 337.191)"/><g transform="matrix(0.300737 0 0 0.300737 107.224 374.874)" stroke="black" id="e664_shape" style="vector-effect: non-scaling-stroke; stroke-width: 1px;" fill="khaki"><path d="M-51.11939914878292,-58.079599432411214c-4.418999999999997,0,-8,3.581000000000003,-8,8v8h48v-8c0,-4.418999999999997,-3.5809999999999995,-8,-8,-8h-8c0,-4.418999999999997,-3.5809999999999995,-8,-8,-8s-8,3.581000000000003,-8,8h-8Z" id="e664_path" transform="matrix(1 0 0 1 102.423 62.7756)"/><path d="M21.081979971670457,16c-5.4,0,-9.778,4.378,-9.778,9.777999999999999v92.445c0,5.400000000000006,4.378,9.777999999999992,9.778,9.777999999999992h92.445c5.400000000000006,0,9.778000000000006,-4.378,9.778000000000006,-9.778000000000006v-92.445c0,-5.3999999999999995,-4.378,-9.778,-9.778000000000006,-9.778h-14.221999999999994v16h-64v-16h-14.222000000000001ZM35.30397997167046,64h24v8h-24v-8ZM59.30397997167046,104h-24v-8h24v8ZM99.30397997167046,88h-64v-8h64v8ZM99.30397997167046,48v8h-64v-8h64Z" id="e665_path" fill="red"/></g><text fill="black" x="-126.66" y="676.721" id="e809_texte" style="font-family: Arial; font-size: 20px;" transform="matrix(0.447849 0 0 0.447849 110.423 8.39795)">bugs/issues</text><text fill="black" x="-205.898" y="784.501" id="e839_texte" style="font-family: Arial; font-size: 20px;" transform="matrix(0.447849 0 0 0.447849 110.423 8.39795)">security accreditation</text><text fill="black" x="-200.865" y="877.082" id="e916_texte" style="font-family: Arial; font-size: 20px;" transform="matrix(0.447849 0 0 0.447849 110.423 8.39795)">WIS 1.0 compliance</text><text fill="white" x="363.311" y="791.126" id="e975_texte" style="font-family: Arial; font-size: 20px;" transform="matrix(0.548019 0 0 0.548019 9.20621 -74.8651)">issues list</text><path d="M69.3739952903069,-7.807495172409553l1.25,1.25a1,1,0,0,0,1.25,-1.25l-2.5,-3.75a2,2,0,0,0,-2.5,0l-2.5,3.75a1,1,0,0,0,1.25,1.25l1.25,-1.25v3.124999999999999a1,1,0,0,0,2.5,0Z" id="e1102_shape" style="vector-effect: non-scaling-stroke; stroke-width: 1px;" fill="khaki" transform="matrix(0.0574956 3.25287 -3.25287 0.0574956 252.914 136.343)"/><g transform="matrix(0.742347 0 0 0.742347 445.926 201.228)" stroke="black" id="e1398_shape" style="vector-effect: non-scaling-stroke; stroke-width: 1px;" fill="khaki"><path d="M30.079858834338324,4.159969750215339c-4.4190000000000005,0,-8,3.581,-8,8v8h48v-8c0,-4.4190000000000005,-3.581,-8,-8,-8h-8c0,-4.4190000000000005,-3.581,-8,-8,-8s-8,3.581,-8,8h-8Z"/><path d="M-0.14214116566176216,10.239953014643646c-5.4,0,-9.778,4.378,-9.778,9.777999999999999v92.445c0,5.400000000000006,4.378,9.777999999999992,9.778,9.777999999999992h92.445c5.400000000000006,0,9.778000000000006,-4.378,9.778000000000006,-9.778000000000006v-92.445c0,-5.3999999999999995,-4.378,-9.778,-9.778000000000006,-9.778h-14.221999999999994v16h-64v-16h-14.222000000000001ZM14.07985883433824,58.239953014643646h24v8h-24v-8ZM38.07985883433824,98.23995301464365h-24v-8h24v8ZM78.07985883433824,82.23995301464365h-64v-8h64v8ZM78.07985883433824,42.239953014643646v8h-64v-8h64Z"/></g><path d="M-377.34337521223506,-179.2453438640258h-96l-16,48v56c0,4.418999999999997,3.5819999999999936,8,8,8h112c4.418000000000006,0,8,-3.581000000000003,8,-8v-56l-16,-48ZM-467.57737521223504,-171.2453438640258h84.46800000000002l13.33299999999997,40h-23.567000000000007l-16,24h-32l-16,-24h-23.567000000000007l13.333000000000027,-40Z" id="e1580_shape" style="vector-effect: non-scaling-stroke; stroke-width: 1px;" fill="khaki" transform="matrix(0.498424 0 0 0.498424 553.126 417.241)"/><text fill="black" x="-5.48628" y="577.999" id="e1612_texte" style="font-family: Arial; font-size: 20px;" transform="matrix(0.637452 0 0 0.637452 322.408 8.82795)" dy="" dx="">backlog</text><g transform="matrix(0.868375 0 0 0.868375 434.221 313.163)" stroke="black" id="e159_shape" style="vector-effect: non-scaling-stroke; stroke-width: 1px;" fill="khaki"><path d="M126.1 88h-6.093c-0.781 0-1.459-0.499-1.734-1.23-0.009-0.023-0.017-0.045-0.026-0.069-0.27-0.712-0.121-1.514 0.417-2.052l4.276-4.276c0.741-0.741 0.741-1.945 0-2.686l-8.627-8.627c-0.741-0.741-1.945-0.741-2.686 0l-4.276 4.276c-0.539 0.539-1.341 0.687-2.052 0.417-0.023-0.009-0.045-0.018-0.069-0.026-0.731-0.275-1.23-0.954-1.23-1.734v-6.093c0-1.049-0.851-1.9-1.9-1.9h-12.202c-1.047 0.001-1.898 0.852-1.898 1.9v6.168c0 0.766-0.461 1.454-1.168 1.749-0.008 0.004-0.016 0.006-0.023 0.010-0.711 0.298-1.529 0.139-2.074-0.406l-4.362-4.362c-0.217-0.217-0.475-0.363-0.748-0.453-0.039-0.013-0.077-0.024-0.117-0.035-0.156-0.041-0.316-0.069-0.477-0.069-0.001 0-0.001 0-0.002 0s-0.002 0-0.002 0c-0.161 0-0.32 0.028-0.477 0.069-0.040 0.010-0.077 0.021-0.117 0.035-0.273 0.090-0.531 0.236-0.748 0.453l-8.627 8.627c-0.741 0.741-0.741 1.945 0 2.686l4.362 4.362c0.545 0.545 0.703 1.364 0.406 2.074-0.004 0.008-0.006 0.016-0.010 0.023-0.296 0.707-0.984 1.169-1.75 1.169h-6.168c-1.049 0-1.9 0.851-1.9 1.9v12.202c0 1.049 0.851 1.9 1.9 1.9h6.093c0.781 0 1.459 0.499 1.734 1.23 0.009 0.023 0.017 0.045 0.026 0.069 0.27 0.712 0.121 1.514-0.417 2.052l-4.276 4.276c-0.741 0.741-0.741 1.945 0 2.686l8.627 8.627c0.741 0.741 1.945 0.741 2.686 0l4.276-4.276c0.539-0.539 1.341-0.687 2.052-0.417 0.023 0.009 0.045 0.018 0.069 0.026 0.731 0.275 1.23 0.954 1.23 1.734v6.093c0 1.049 0.851 1.899 1.9 1.899h12.202c1.049 0 1.9-0.851 1.9-1.9v-6.168c0-0.766 0.461-1.454 1.168-1.749 0.008-0.004 0.016-0.006 0.023-0.010 0.711-0.298 1.529-0.139 2.074 0.406l4.362 4.362c0.741 0.741 1.945 0.741 2.686 0l8.627-8.627c0.741-0.741 0.741-1.945 0-2.686l-4.362-4.362c-0.545-0.545-0.703-1.364-0.406-2.074 0.004-0.008 0.006-0.016 0.010-0.023 0.295-0.707 0.983-1.168 1.749-1.168h6.168c1.049 0 1.9-0.851 1.9-1.9v-12.202c-0.001-1.051-0.852-1.901-1.9-1.901zM79.625 68.606c-0.038-0.013-0.076-0.024-0.115-0.034 0.039 0.010 0.076 0.020 0.115 0.034zM78.549 68.573c-0.038 0.010-0.077 0.021-0.115 0.034 0.039-0.013 0.076-0.024 0.115-0.034zM96 112c-8.837 0-16-7.163-16-16s7.163-16 16-16 16 7.163 16 16-7.163 16-16 16z"/><path d="M104 96c0 4.418-3.582 8-8 8s-8-3.582-8-8c0-4.418 3.582-8 8-8s8 3.582 8 8z"/><path d="M2.849,64h13.253c1.154,0,2.189,0.6989999999999981,2.628,1.7650000000000006c0.004999999999999005,0.01099999999999568,0.010000000000001563,0.022999999999996135,0.013999999999999346,0.03499999999999659c0.43900000000000006,1.0630000000000024,0.1999999999999993,2.284000000000006,-0.6140000000000008,3.097999999999999l-9.371,9.370999999999995c-1.112,1.1119999999999948,-1.112,2.915999999999997,0,4.028000000000006l12.942000000000002,12.942000000000007c1.1120000000000019,1.1119999999999948,2.9160000000000004,1.1119999999999948,4.029,0l9.370999999999999,-9.370999999999995c0.8140000000000001,-0.8140000000000072,2.0349999999999966,-1.0529999999999973,3.097999999999999,-0.6140000000000043c0.011000000000002785,0.0040000000000048885,0.02300000000000324,0.010000000000005116,0.03499999999999659,0.013999999999995794c1.0670000000000002,0.43899999999999295,1.7650000000000006,1.4749999999999943,1.7650000000000006,2.629000000000005v13.253c0,1.5729999999999933,1.2760000000000034,2.8490000000000038,2.8490000000000038,2.8490000000000038h13.355000000000004c-0.12100000000000222,-0.6170000000000044,-0.2049999999999983,-1.2469999999999999,-0.2049999999999983,-1.9000000000000057v-12.201999999999998c0,-3.593999999999994,1.9249999999999972,-6.745999999999995,4.796999999999997,-8.480999999999995c-0.2220000000000013,-0.9000000000000057,-0.30400000000000205,-1.823999999999998,-0.2710000000000008,-2.7450000000000045c-2.689,0.8589999999999947,-5.552999999999997,1.3269999999999982,-8.525999999999996,1.3269999999999982c-15.463999999999999,0,-28,-12.536000000000001,-28,-28s12.536000000000001,-28,28,-28s28,12.536000000000001,28,28c0,2.9710000000000036,-0.46699999999999875,5.832999999999998,-1.3250000000000028,8.519999999999996c0.117999999999995,-0.005000000000002558,0.23499999999999943,-0.018000000000000682,0.3539999999999992,-0.018000000000000682c0.8169999999999931,0,1.6200000000000045,0.09799999999999898,2.391999999999996,0.2890000000000015c1.7360000000000042,-2.868000000000002,4.8870000000000005,-4.790999999999997,8.477999999999994,-4.790999999999997h12.201999999999998c0.6509999999999962,0,1.2819999999999965,0.08400000000000318,1.9000000000000057,0.2049999999999983v-13.355000000000004c0,-1.5730000000000004,-1.2750000000000057,-2.8490000000000038,-2.8490000000000038,-2.8490000000000038h-13.253c-1.1539999999999964,0,-2.188999999999993,-0.6989999999999981,-2.629000000000005,-1.7650000000000006c-0.0040000000000048885,-0.011000000000002785,-0.010000000000005116,-0.02300000000000324,-0.013999999999995794,-0.03499999999999659c-0.43899999999999295,-1.0630000000000024,-0.20000000000000284,-2.2849999999999966,0.6140000000000043,-3.097999999999999l9.370999999999995,-9.371000000000002c1.1119999999999948,-1.1120000000000019,1.1119999999999948,-2.9160000000000004,0,-4.029l-12.941999999999993,-12.942c-1.1119999999999948,-1.112,-2.915999999999997,-1.112,-4.028000000000006,0l-9.373000000000005,9.370999999999999c-0.813999999999993,0.8140000000000001,-2.0349999999999966,1.0530000000000008,-3.097999999999999,0.6140000000000008c-0.01099999999999568,-0.004999999999999005,-0.022999999999996135,-0.010000000000001563,-0.03499999999999659,-0.013999999999999346c-1.066999999999993,-0.43900000000000006,-1.7650000000000006,-1.4750000000000014,-1.7650000000000006,-2.628v-13.253c0,-1.573,-1.2760000000000034,-2.849,-2.8490000000000038,-2.849h-18.302c-1.5730000000000004,0,-2.8489999999999966,1.2760000000000002,-2.8489999999999966,2.849v13.253c0,1.154,-0.6989999999999981,2.189,-1.7650000000000006,2.628c-0.011000000000002785,0.004999999999999005,-0.02300000000000324,0.010000000000001563,-0.03499999999999659,0.013999999999999346c-1.0630000000000024,0.43900000000000006,-2.2849999999999966,0.1999999999999993,-3.097999999999999,-0.6140000000000008l-9.371000000000002,-9.371c-1.1120000000000019,-1.112,-2.9160000000000004,-1.112,-4.029,0l-12.942,12.941999999999998c-1.112,1.1120000000000019,-1.112,2.9160000000000004,0,4.029l9.370999999999999,9.370999999999999c0.8140000000000001,0.8140000000000001,1.0530000000000008,2.0350000000000037,0.6140000000000008,3.097999999999999c-0.004999999999999005,0.011000000000002785,-0.010000000000001563,0.02300000000000324,-0.013999999999999346,0.03499999999999659c-0.43900000000000006,1.0670000000000002,-1.4750000000000014,1.7650000000000006,-2.628,1.7650000000000006h-13.253c-1.5729999999999997,0,-2.849,1.2760000000000034,-2.849,2.8489999999999966v18.302c0,1.5730000000000004,1.2760000000000002,2.8489999999999966,2.849,2.8489999999999966Z"/></g><path d="M70.24903926305981,-45.66795533569442l1.25,1.25a1,1,0,0,0,1.25,-1.25l-2.5,-3.75a2,2,0,0,0,-2.5,0l-2.5,3.75a1,1,0,0,0,1.25,1.25l1.25,-1.25v3.125a1,1,0,0,0,2.5,0Z" id="e209_shape" style="vector-effect: non-scaling-stroke; stroke-width: 1px;" fill="khaki" transform="matrix(0.0574956 3.25287 -3.25287 0.0574956 251.566 137.017)"/><text fill="black" x="1116.87" y="796.778" id="e223_texte" style="font-family: Arial; font-size: 20px;" transform="matrix(0.548814 0 0 0.548814 -150.797 -75.4946)">kanban</text><g transform="matrix(0.460346 0 0 0.460346 390.373 407.91)" stroke="black" id="e327_shape" style="vector-effect: non-scaling-stroke; stroke-width: 1px;" fill="khaki"><path d="M6.431 113.286l33.569 6.714v-104l-30.431-6.086c-4.95-0.99-9.569 2.796-9.569 7.845v87.683c0 3.813 2.692 7.097 6.431 7.844z"/><path d="M80,112v-104l-32,8v104Z"/><path d="M88 8v104l30.431 6.086c4.95 0.99 9.569-2.796 9.569-7.844v-87.683c0-3.813-2.692-7.097-6.431-7.845l-33.569-6.714z"/></g><g transform="matrix(0.360952 0 0 0.360952 444.056 474.535)" stroke="black" id="e353_shape" style="vector-effect: non-scaling-stroke; stroke-width: 1px;" fill="khaki"><path d="M114.55086984271179,21.56526562144859v24h24Z"/><path d="M33.778,128h76.445c5.400000000000006,0,9.778000000000006,-4.378,9.778000000000006,-9.778000000000006v-70.222h-22.221999999999994c-5.400000000000006,0,-9.778000000000006,-4.378,-9.778000000000006,-9.777999999999999v-22.222h-54.222c-5.399999999999999,0,-9.777999999999999,4.378,-9.777999999999999,9.777999999999999v92.445c0,5.400000000000006,4.378,9.777999999999992,9.777999999999999,9.777999999999992Z" transform="matrix(1.21191 0 0 1.21191 -1.15493 0.540554)"/><path d="M80 0v8h8z"/><path d="M72 8v-8h-54.222c-5.4 0-9.778 4.378-9.778 9.778v92.445c0 4.792 3.45 8.772 8 9.609v-86.053c0-9.803 7.975-17.778 17.778-17.778h38.222z"/></g><g transform="matrix(0.460346 0 0 0.460346 517.251 429.337)" stroke="black" id="e379_shape" style="vector-effect: non-scaling-stroke; stroke-width: 1px;" fill="khaki"><path d="M104.00000000000011,71.99999999999977v16h-16c-7.439,0,-14.098,-3.403,-18.504,-8.733c-1.807,5.37,-4.536,10.317,-8.003,14.653c7.062,6.264,16.345,10.079,26.507,10.079h16v16l24,-24l-24,-24Z"/><path d="M104,8v16h-16c-22.055999999999997,0,-40,17.944000000000003,-40,40c0,13.233999999999995,-10.765999999999998,24,-24,24h-24v16h24c22.055999999999997,0,40,-17.944000000000003,40,-40c0,-13.234000000000002,10.766000000000005,-24,24,-24h16v16l24,-24l-24,-24Z" fill="tomato"/><path d="M42.50400000000011,48.73299999999977c1.807,-5.37,4.536,-10.316,8.003,-14.653c-7.062,-6.264,-16.345,-10.079,-26.507,-10.079h-24v16h24c7.439,0,14.098,3.403,18.504,8.733Z"/></g><text fill="black" x="1016.95" y="1206.36" id="e405_texte" style="font-family: Arial; font-size: 20px;" transform="matrix(0.630333 0 0 0.630333 -243.449 -285.868)">design</text><text fill="black" x="1163.97" y="1361.32" id="e420_texte" style="font-family: Arial; font-size: 20px;" transform="matrix(0.565795 0 0 0.565795 -201.48 -257.811)">feature</text><text fill="black" x="1295.1" y="1228.21" id="e435_texte" style="font-family: Arial; font-size: 20px;" transform="matrix(0.512027 0 0 0.512027 -162.255 -135.167)">development sequence</text><path d="M-8.596775113974815,-1.2137105211435681l-1.5625,-1.25h1.25a8,8,0,0,1,6,-6.25a2,2,0,0,0,0.625,3.125a4.6,4.6,0,0,0,-5.875,3.125h1.25Z" id="e553_shape" style="vector-effect: non-scaling-stroke; stroke-width: 1px;" fill="khaki" transform="matrix(2.63587 0 0 2.63587 440.24 409.116)"/><path d="M11.270775333050587,18.653839925881833l-1.5625,-1.25h1.25a8,8,0,0,1,6,-6.25a2,2,0,0,0,0.625,3.125a4.6,4.6,0,0,0,-5.875,3.125h1.25Z" id="e656_shape" style="vector-effect: non-scaling-stroke; stroke-width: 1px;" fill="khaki" transform="matrix(-0.110039 -2.63358 2.63358 -0.110039 392.927 526.155)"/><path d="M4.190545418559353,50.61662469459911l-1.5625,-1.25h1.25a8,8,0,0,1,6,-6.25a2,2,0,0,0,0.625,3.125a4.6,4.6,0,0,0,-5.874999999999998,3.125h1.25Z" id="e795_shape" style="vector-effect: non-scaling-stroke; stroke-width: 1px;" fill="khaki" transform="matrix(-2.41032 -1.03878 1.03878 -2.41032 482.7 623.416)"/><path d="M1.3684508167998146,81.65174455544931l-1.5625,-1.25h1.25a8,8,0,0,1,6,-6.25a2,2,0,0,0,0.6250000000000009,3.125a4.6,4.6,0,0,0,-5.875000000000001,3.125h1.25Z" id="e878_shape" style="vector-effect: non-scaling-stroke; stroke-width: 1px;" fill="khaki" transform="matrix(-0.330838 2.60371 -2.60371 -0.330838 755.994 440.419)"/><text fill="black" x="1089.22" y="409.46" id="e1010_texte" style="font-family: Arial; font-size: 20px;" transform="matrix(0.571609 0 0 0.571609 -169.396 51.4524)">create tests</text><path d="M-4.800330604777159,-4.218722807814601l1.25,-1.875v1.25c10,0,8,6.25,0,6.25v-1.25c10,0,8,-3.75,0,-3.75v1.25Z" id="e1068_shape" style="vector-effect: non-scaling-stroke; stroke-width: 1px;" fill="khaki" transform="matrix(7.01441 0 0 7.01441 559.222 316.005)"/><path d="M3.988238797477578,2.6588258649823935l-1.25,1.875v-1.25c-10,0,-8,-6.25,0,-6.25v1.25c-10,0,-8,3.75,0,3.75v-1.25Z" id="e1091_shape" style="vector-effect: non-scaling-stroke; stroke-width: 1px;" fill="khaki" transform="matrix(8.43398 0 0 8.43398 409.534 299.283)"/><g transform="matrix(0.606038 0 0 0.606038 838.223 401.324)" stroke="black" id="e1114_shape" style="vector-effect: non-scaling-stroke; stroke-width: 1px;" fill="khaki"><path d="M-380.8826106671638,-103.26761575285013h40.04000000000002c11.045000000000016,0,20,-8.954999999999998,20,-20s-8.954999999999984,-20,-20,-20c-2.209000000000003,0,-4,1.7909999999999968,-4,4s1.7909999999999968,4,4,4c6.6270000000000095,0,12,5.372000000000014,12,12s-5.3729999999999905,12,-12,12h-40.04000000000002c-2.187000000000012,0,-3.9599999999999795,1.7729999999999961,-3.9599999999999795,3.9599999999999937v0.0799999999999983c0,2.1869999999999976,1.7730000000000246,3.9599999999999937,3.9599999999999795,3.9599999999999937Z" fill="skyblue"/><path d="M-380.8826106671638,-71.26761575285013h72.04000000000002c11.045000000000016,0,20,-8.954999999999998,20,-20s-8.954999999999984,-20,-20,-20c-2.209000000000003,0,-4,1.7909999999999968,-4,4s1.7909999999999968,4,4,4c6.6270000000000095,0,12,5.3729999999999905,12,12s-5.3729999999999905,12,-12,12h-72.04000000000002c-2.187000000000012,0,-3.9599999999999795,1.7729999999999961,-3.9599999999999795,3.9599999999999937v0.0799999999999983c0,2.1869999999999976,1.7730000000000246,3.9599999999999937,3.9599999999999795,3.9599999999999937Z" fill="lightblue"/><path d="M-276.84261066716385,-79.26761575285013c-2.209000000000003,0,-4,1.7909999999999968,-4,4s1.7909999999999968,4,4,4c6.6270000000000095,0,12,5.373000000000005,12,12s-5.3729999999999905,12,-12,12h-104.04000000000002c-2.187000000000012,0,-3.9599999999999795,1.7730000000000032,-3.9599999999999795,3.960000000000001v0.0799999999999983c0,2.1869999999999976,1.7730000000000246,3.960000000000001,3.9599999999999795,3.960000000000001h104.04000000000002c11.045000000000016,0,20,-8.954999999999998,20,-20s-8.954999999999984,-20,-20,-20Z" fill="cornflowerblue"/><path d="M324.4463745694461,140.14770291521438c-2.209000000000003,0,-4,1.7909999999999968,-4,4s1.7909999999999968,4,4,4c6.6270000000000095,0,12,5.3729999999999905,12,12s-5.3729999999999905,12,-12,12h-104.04000000000002c-2.187000000000012,0,-3.960000000000008,1.7729999999999961,-3.960000000000008,3.960000000000008v0.0800000000000125c0,2.187000000000012,1.7729999999999961,3.960000000000008,3.960000000000008,3.960000000000008h104.04000000000002c11.045000000000016,0,20,-8.955000000000013,20,-20s-8.954999999999984,-20,-20,-20Z" id="e2350_path" transform="matrix(1 0 0 1 -395.965 -149.043)" fill="orange"/><path d="M363.31625847752696,366.6396826297427c-2.209000000000003,0,-4,1.7909999999999968,-4,4s1.7909999999999968,4,4,4c6.6270000000000095,0,12,5.3729999999999905,12,12s-5.3729999999999905,12,-12,12h-104.04000000000002c-2.187000000000012,0,-3.960000000000008,1.7730000000000246,-3.960000000000008,3.9599999999999795v0.07999999999998408c0,2.187000000000012,1.7729999999999961,3.9599999999999795,3.960000000000008,3.9599999999999795h104.04000000000002c11.045000000000016,0,20,-8.954999999999984,20,-20s-8.954999999999984,-20,-20,-20Z" id="e3879_path" transform="matrix(1 0 0 1 -395.965 -149.043)" fill="cornflowerblue"/><path d="M990.2769381371409,312.1285156488201c-2.2089999999999463,0,-4,1.7909999999999968,-4,4s1.7910000000000537,4,4,4c6.626999999999953,0,12,5.3729999999999905,12,12s-5.373000000000047,12,-12,12h-104.03999999999996c-2.187000000000012,0,-3.9600000000000364,1.7729999999999961,-3.9600000000000364,3.960000000000008v0.08000000000001257c0,2.187000000000012,1.7730000000000246,3.960000000000008,3.9600000000000364,3.960000000000008h104.03999999999996c11.044999999999959,0,20,-8.955000000000013,20,-20s-8.955000000000041,-20,-20,-20Z" id="e3939_path" transform="matrix(1 0 0 1 -395.965 -149.043)" fill="black"/></g><path d="M70.33346298033752,-98.08413495421576l1.25,1.25a1,1,0,0,0,1.25,-1.25l-2.5,-3.75a2,2,0,0,0,-2.5,0l-2.5,3.75a1,1,0,0,0,1.25,1.25l1.25,-1.25v3.125a1,1,0,0,0,2.5,0Z" id="e1282_shape" style="vector-effect: non-scaling-stroke; stroke-width: 1px;" fill="khaki" transform="matrix(0.0574956 3.25287 -3.25287 0.0574956 227.719 138.011)"/><text fill="black" x="854.886" y="510.269" id="e1296_texte" style="font-family: Arial; font-size: 20px;" transform="matrix(0.453769 0 0 0.453769 189.631 117.516)">feature branches</text><text fill="black" x="775.616" y="551.006" id="e1386_texte" style="font-family: Arial; font-size: 20px;" transform="matrix(0.425511 0 0 0.425511 235.899 133.628)">forked from develop branch</text><g transform="matrix(0.596901 0 0 0.596901 708.846 158.892)" stroke="black" id="e1416_shape" style="vector-effect: non-scaling-stroke; stroke-width: 1px;" fill="khaki"><path d="M48 36v16c0 11.169 6.541 20.808 16 25.301v2.699c0 4.419-3.581 8-8 8h-16c-8.837 0-16 7.163-16 16v14.222c0 5.4 4.378 9.778 9.778 9.778h84.445c5.4 0 9.778-4.378 9.778-9.778v-14.222c0-8.837-7.163-16-16-16h-16c-4.419 0-8-3.581-8-8v-2.699c9.459-4.494 16-14.133 16-25.301v-16c0-15.464-12.536-28-28-28s-28 12.536-28 28z"/><path d="M9.778 120h6.312c-0.059-0.585-0.090-1.178-0.090-1.778v-14.222c0-13.234 10.766-24 24-24h13.391c-8.321-6.754-13.391-17.045-13.391-28v-16c0-15.353 9.665-28.485 23.227-33.651-3.438-1.508-7.234-2.349-11.227-2.349-15.464 0-28 12.536-28 28v16c0 11.169 6.541 20.808 16 25.301v2.699c0 4.419-3.581 8-8 8h-16c-8.836 0-16 7.163-16 16v14.222c0 5.4 4.378 9.778 9.778 9.778z"/></g><text fill="black" x="2325.7" y="846.667" id="e1442_texte" style="font-family: Arial; font-size: 20px;" transform="matrix(0.718203 0 0 0.718203 -957.17 -356.989)">feature squad</text><g transform="matrix(0.530023 0 0 0.530023 722.88 301.654)" stroke="black" id="e1472_shape" style="vector-effect: non-scaling-stroke; stroke-width: 1px;" fill="khaki"><path d="M44.040 24c2.187 0 3.96-1.773 3.96-3.96v-16.080c0-2.187-1.773-3.96-3.96-3.96h-0.080c-2.187 0-3.96 1.773-3.96 3.96v16.080c0 2.187 1.773 3.96 3.96 3.96h0.080z"/><path d="M84.040 24c2.187 0 3.96-1.773 3.96-3.96v-16.080c0-2.187-1.773-3.96-3.96-3.96h-0.080c-2.187 0-3.96 1.773-3.96 3.96v16.080c0 2.187 1.773 3.96 3.96 3.96h0.080z"/><path d="M118.222,15.999999999999886h-22.221999999999994v4.039999999999999c0,6.594999999999999,-5.364999999999995,11.96,-11.960000000000008,11.96h-0.0799999999999983c-6.594999999999999,0,-11.959999999999994,-5.365000000000002,-11.959999999999994,-11.96v-4.039999999999999h-16v4.039999999999999c0,6.594999999999999,-5.365000000000002,11.96,-11.96,11.96h-0.0799999999999983c-6.594999999999999,0,-11.96,-5.365000000000002,-11.96,-11.96v-4.039999999999999h-22.222c-5.4,0,-9.778,4.378,-9.778,9.777999999999999v92.445c0,5.400000000000006,4.378,9.777999999999992,9.778,9.777999999999992h108.445c5.400000000000006,0,9.777999999999992,-4.378,9.777999999999992,-9.778000000000006v-92.445c0,-5.3999999999999995,-4.378,-9.778,-9.778000000000006,-9.778ZM120,119.99999999999989h-112v-80h112v80Z"/></g><text fill="black" x="1947.21" y="758.495" id="e1498_texte" style="font-family: Arial; font-size: 20px;" transform="matrix(0.666386 0 0 0.666386 -561.799 -169.467)">feature</text><text fill="black" x="1949.36" y="788.603" id="e1513_texte" style="font-family: Arial; font-size: 20px;" transform="matrix(0.666386 0 0 0.666386 -561.799 -169.467)">project</text><path d="M70.6743768907049,-139.78721959341658l1.25,1.25a1,1,0,0,0,1.25,-1.25l-2.5,-3.75a2,2,0,0,0,-2.5,0l-2.5,3.75a1,1,0,0,0,1.25,1.25l1.25,-1.25v3.125a1,1,0,0,0,2.5,0Z" id="e1582_shape" style="vector-effect: non-scaling-stroke; stroke-width: 1px;" fill="khaki" transform="matrix(0.0574956 3.25287 -3.25287 0.0574956 243.902 138.365)"/><path d="M105.77232509095299,-2.745764324917655l-1.5625,-1.25h1.25a8,8,0,0,1,6,-6.25a2,2,0,0,0,0.625,3.125a4.6,4.6,0,0,0,-5.875,3.125h1.25Z" id="e1694_shape" style="vector-effect: non-scaling-stroke; stroke-width: 1px;" fill="khaki" transform="matrix(2.45779 0.952408 -0.952408 2.45779 436.73 333.895)"/><text fill="black" x="1947.2" y="856.345" id="e1722_texte" style="font-family: Arial; font-size: 20px;" transform="matrix(0.434953 0 0 0.434953 -133.277 38.8854)">fork squad branches</text><text fill="black" x="1957.96" y="912.254" id="e1752_texte" style="font-family: Arial; font-size: 20px;" transform="matrix(0.458451 0 0 0.458451 -169.677 11.2965)">from feature branch</text><path d="M-150.22325167490956,-6.000851807681784h38.222v16h-8.079999999999998c-4.374000000000002,0,-7.920000000000002,3.5460000000000065,-7.920000000000002,7.920000000000002v0.0799999999999983h64v-0.0799999999999983c0,-4.373999999999995,-3.5460000000000065,-7.920000000000002,-7.920000000000002,-7.920000000000002h-8.079999999999998v-16h38.22200000000001c5.400000000000006,0,9.777999999999992,-4.378,9.777999999999992,-9.778000000000006v-76.445c0,-5.4,-4.378,-9.778,-9.778000000000006,-9.778h-108.445c-5.4,0,-9.778,4.378,-9.778,9.778v76.445c0,5.400000000000006,4.378,9.778000000000006,9.778,9.778000000000006ZM-152.00125167490955,-94.00085180768178h112v80h-112v-80Z" stroke="black" id="e1814_shape" style="vector-effect: non-scaling-stroke; stroke-width: 1px;" fill="black" transform="matrix(0.362395 0 0 0.362395 742.597 474.182)"/><path d="M1.436924477166699,125.25861903480745l-1.5625000000000002,-1.25h1.25a8,8,0,0,1,6,-6.25a2,2,0,0,0,0.625,3.125a4.6,4.6,0,0,0,-5.875,3.125h1.2499999999999998Z" id="e1877_shape" style="vector-effect: non-scaling-stroke; stroke-width: 1px;" fill="khaki" transform="matrix(2.21132 -1.83668 1.83668 2.21132 439.899 232.806)"/><text fill="black" x="1846.13" y="995.051" id="e1891_texte" style="font-family: Arial; font-size: 20px;" transform="matrix(0.66519 0 0 0.66519 -534.944 -203.081)">code</text><g transform="matrix(0.302928 0 0 0.302928 683.488 509.927)" stroke="black" id="e1941_shape" style="vector-effect: non-scaling-stroke; stroke-width: 1px;" fill="khaki"><path d="M30.079858834338324,4.159969750215339c-4.4190000000000005,0,-8,3.581,-8,8v8h48v-8c0,-4.4190000000000005,-3.581,-8,-8,-8h-8c0,-4.4190000000000005,-3.581,-8,-8,-8s-8,3.581,-8,8h-8Z" id="e1941_path"/><path d="M-0.14214116566176216,10.239953014643646c-5.4,0,-9.778,4.378,-9.778,9.777999999999999v92.445c0,5.400000000000006,4.378,9.777999999999992,9.778,9.777999999999992h92.445c5.400000000000006,0,9.778000000000006,-4.378,9.778000000000006,-9.778000000000006v-92.445c0,-5.3999999999999995,-4.378,-9.778,-9.778000000000006,-9.778h-14.221999999999994v16h-64v-16h-14.222000000000001ZM14.07985883433824,58.239953014643646h24v8h-24v-8ZM38.07985883433824,98.23995301464365h-24v-8h24v8ZM78.07985883433824,82.23995301464365h-64v-8h64v8ZM78.07985883433824,42.239953014643646v8h-64v-8h64Z" id="e1942_path"/></g><text fill="black" x="2196.67" y="1050.97" id="e2068_texte" style="font-family: Arial; font-size: 20px;" transform="matrix(0.464816 -0.00216872 0.00216872 0.464816 -344.86 75.9091)">unit tests</text><path d="M-116.76312985305577,137.45536099399737l-1.5625,-1.25h1.25a8,8,0,0,1,6,-6.25a2,2,0,0,0,0.625,3.125a4.6,4.6,0,0,0,-5.875,3.125h1.25Z" id="e2147_shape" style="vector-effect: non-scaling-stroke; stroke-width: 1px;" fill="khaki" transform="matrix(0.123426 2.62173 -2.62173 0.123426 1237.23 732.317)"/><path d="M-139.89806427791336,-39.87005347139857l1.25,1.25a1,1,0,0,0,1.25,-1.25l-2.5,-3.75a2,2,0,0,0,-2.5,0l-2.5,3.75a1,1,0,0,0,1.25,1.25l1.25,-1.25v3.125a1,1,0,0,0,2.5,0Z" id="e2262_shape" style="vector-effect: non-scaling-stroke; stroke-width: 1px;" fill="khaki" transform="matrix(-3.25324 0.0313445 -0.0313445 -3.25324 298.626 262.816)"/><text fill="black" x="1964.22" y="1350.75" id="e2530_texte" style="font-family: Arial; font-size: 20px;" transform="matrix(0.427686 0 0 0.427686 -110.793 -30.0151)">push squad branches</text><text fill="black" x="1232.53" y="1116.53" id="e2545_texte" style="font-family: Arial; font-size: 20px;" transform="matrix(0.491121 0 0 0.491121 151.35 19.0571)">to feature branch</text><g transform="matrix(0.302928 0 0 0.302928 864.457 461.945)" stroke="black" id="e2624_shape" style="vector-effect: non-scaling-stroke; stroke-width: 1px;" fill="khaki"><path d="M30.079858834338324,4.159969750215339c-4.4190000000000005,0,-8,3.581,-8,8v8h48v-8c0,-4.4190000000000005,-3.581,-8,-8,-8h-8c0,-4.4190000000000005,-3.581,-8,-8,-8s-8,3.581,-8,8h-8Z" id="e2624_path"/><path d="M-0.14214116566176216,10.239953014643646c-5.4,0,-9.778,4.378,-9.778,9.777999999999999v92.445c0,5.400000000000006,4.378,9.777999999999992,9.778,9.777999999999992h92.445c5.400000000000006,0,9.778000000000006,-4.378,9.778000000000006,-9.778000000000006v-92.445c0,-5.3999999999999995,-4.378,-9.778,-9.778000000000006,-9.778h-14.221999999999994v16h-64v-16h-14.222000000000001ZM14.07985883433824,58.239953014643646h24v8h-24v-8ZM38.07985883433824,98.23995301464365h-24v-8h24v8ZM78.07985883433824,82.23995301464365h-64v-8h64v8ZM78.07985883433824,42.239953014643646v8h-64v-8h64Z" id="e2625_path"/></g><text fill="black" x="2189.68" y="1081.08" id="e2650_texte" style="font-family: Arial; font-size: 20px;" transform="matrix(0.446086 0 0 0.446086 -131.039 25.3681)">acceptance tests</text><path d="M0.7416857957029919,160.476976026901l-1.5625,-1.25h1.25a8,8,0,0,1,6,-6.25a2,2,0,0,0,0.625,3.125a4.6,4.6,0,0,0,-5.875,3.125h1.25Z" id="e2743_shape" style="vector-effect: non-scaling-stroke; stroke-width: 1px;" fill="khaki" transform="matrix(-1.36687 -2.25377 2.25377 -1.36687 385.073 776.34)"/><text fill="black" x="1852.04" y="1319.79" id="e2775_texte" style="font-family: Arial; font-size: 20px;" transform="matrix(0.464816 -0.00216872 0.00216872 0.464816 -215.448 -39.6509)">against squad branches</text><text fill="black" x="2170.32" y="1106.88" id="e2887_texte" style="font-family: Arial; font-size: 20px;" transform="matrix(0.446086 0 0 0.446086 -131.039 25.3681)">against feature branch</text><path d="M-81.39956520513192,142.63181194193652l-1.5625,-1.25h1.25a8,8,0,0,1,6,-6.25a2,2,0,0,0,0.625,3.125a4.6,4.6,0,0,0,-5.875,3.125h1.25Z" id="e3101_shape" style="vector-effect: non-scaling-stroke; stroke-width: 1px;" fill="khaki" transform="matrix(-2.62433 0.0403308 -0.0403308 -2.62433 648.612 903.161)"/><g transform="matrix(0.301434 0 0 0.301434 934.305 500.868)" stroke="black" id="e3251_shape" style="vector-effect: non-scaling-stroke; stroke-width: 1px;" fill="khaki"><path d="M120.966 111.302l5.828-52.444c0.644-5.792-3.891-10.858-9.718-10.858h-21.076c0 0 0-16 0-40 0 0 0-8-8-8s-8 8-8 8-8 40-24 40c-8 0-16 0-16 0v64c0 0 8 0 16 0s16 8 32 8h23.249c4.982 0 9.167-3.746 9.717-8.698z" fill="green"/><path d="M31.999999999996817,110.22199999999954v-60.444c0,-5.4,-4.378,-9.778,-9.778,-9.778h-22.222v80h22.222c5.4,0,9.778,-4.378,9.778,-9.778ZM15.999999999996817,111.99999999999955c-4.4190000000000005,0,-8,-3.581,-8,-8s3.581,-8,8,-8s8,3.581,8,8s-3.581,8,-8,8Z"/></g><text fill="black" x="2489.14" y="1076.77" id="e3277_texte" style="font-family: Arial; font-size: 20px;" transform="matrix(0.474368 0 0 0.474368 -254.173 37.5447)">all tests pass</text><g transform="matrix(0.216122 0 0 0.216122 835.371 418.456)" stroke="black" id="e3452_shape" style="vector-effect: non-scaling-stroke; stroke-width: 1px;" fill="khaki"><path d="M80,120c0,0,0,8,8,8s8,-8,8,-8c0,-24,0,-40,0,-40h21.076c5.828,0,10.362,-5.066,9.718,-10.858l-5.828,-52.444c-0.55,-4.952,-4.735,-8.698,-9.717,-8.698h-23.249c-16,0,-24,8,-32,8s-16,0,-16,0v64c0,0,8,0,16,0c16,0,24,40,24,40Z" fill="red"/><path d="M32 78.222v-60.444c0-5.4-4.378-9.778-9.778-9.778h-22.222v80h22.222c5.4 0 9.778-4.378 9.778-9.778zM16 80c-4.419 0-8-3.581-8-8s3.581-8 8-8 8 3.581 8 8-3.581 8-8 8z"/></g><path d="M-131.94955658285937,154.51312403106039l-1.5625,-1.25h1.25a8,8,0,0,1,6,-6.25a2,2,0,0,0,0.625,3.125a4.6,4.6,0,0,0,-5.875,3.125h1.25Z" id="e3498_shape" style="vector-effect: non-scaling-stroke; stroke-width: 1px;" fill="khaki" transform="matrix(1.04599 2.4072 -2.4072 1.04599 1322.38 565.056)"/><text fill="black" x="3104.45" y="1257.6" id="e3955_texte" style="font-family: Arial; font-size: 20px;" transform="matrix(0.467668 0 0 0.467668 -338.218 -73.696)">push feature branch</text><text fill="black" x="3123.59" y="1313.68" id="e3985_texte" style="font-family: Arial; font-size: 20px;" transform="matrix(0.478736 0 0 0.478736 -362.495 -93.5855)">to develop branch</text><g transform="matrix(0.302928 0 0 0.302928 1135.68 400.53)" stroke="black" id="e4035_shape" style="vector-effect: non-scaling-stroke; stroke-width: 1px;" fill="khaki"><path d="M30.079858834338324,4.159969750215339c-4.4190000000000005,0,-8,3.581,-8,8v8h48v-8c0,-4.4190000000000005,-3.581,-8,-8,-8h-8c0,-4.4190000000000005,-3.581,-8,-8,-8s-8,3.581,-8,8h-8Z" id="e4035_path"/><path d="M-0.14214116566176216,10.239953014643646c-5.4,0,-9.778,4.378,-9.778,9.777999999999999v92.445c0,5.400000000000006,4.378,9.777999999999992,9.778,9.777999999999992h92.445c5.400000000000006,0,9.778000000000006,-4.378,9.778000000000006,-9.778000000000006v-92.445c0,-5.3999999999999995,-4.378,-9.778,-9.778000000000006,-9.778h-14.221999999999994v16h-64v-16h-14.222000000000001ZM14.07985883433824,58.239953014643646h24v8h-24v-8ZM38.07985883433824,98.23995301464365h-24v-8h24v8ZM78.07985883433824,82.23995301464365h-64v-8h64v8ZM78.07985883433824,42.239953014643646v8h-64v-8h64Z" id="e4036_path"/></g><text fill="black" x="3036.77" y="1055.54" id="e4129_texte" style="font-family: Arial; font-size: 20px;" transform="matrix(0.497574 0 0 0.497574 -416.87 -75.3861)">continuous integration tests</text><text fill="black" x="3066.88" y="1081.35" id="e4174_texte" style="font-family: Arial; font-size: 20px;" transform="matrix(0.497574 0 0 0.497574 -416.87 -75.3861)">against develop branch</text><path d="M224.87950493788185,-32.75915052065548l-1.5625,-1.25h1.25a8,8,0,0,1,6,-6.25a2,2,0,0,0,0.625,3.125a4.6,4.6,0,0,0,-5.875,3.125h1.25Z" id="e4224_shape" style="vector-effect: non-scaling-stroke; stroke-width: 1px;" fill="khaki" transform="matrix(0.665672 4.71548 -3.30563 0.466647 861.946 -687.088)"/><g transform="matrix(0.216122 0 0 0.216122 1083.83 337.832)" stroke="black" id="e4258_shape" style="vector-effect: non-scaling-stroke; stroke-width: 1px;" fill="khaki"><path d="M80,120c0,0,0,8,8,8s8,-8,8,-8c0,-24,0,-40,0,-40h21.076c5.828,0,10.362,-5.066,9.718,-10.858l-5.828,-52.444c-0.55,-4.952,-4.735,-8.698,-9.717,-8.698h-23.249c-16,0,-24,8,-32,8s-16,0,-16,0v64c0,0,8,0,16,0c16,0,24,40,24,40Z" id="e4258_path" fill="red"/><path d="M32 78.222v-60.444c0-5.4-4.378-9.778-9.778-9.778h-22.222v80h22.222c5.4 0 9.778-4.378 9.778-9.778zM16 80c-4.419 0-8-3.581-8-8s3.581-8 8-8 8 3.581 8 8-3.581 8-8 8z" id="e4259_path"/></g><path d="M159.92357513220742,-51.75087231552121l-1.5625,-1.25h1.25a8,8,0,0,1,6,-6.25a2,2,0,0,0,0.6250000000000003,3.125a4.6,4.6,0,0,0,-5.875,3.125h1.25Z" id="e4296_shape" style="vector-effect: non-scaling-stroke; stroke: none;" fill="peru" transform="matrix(22.6246 8.09233 -26.7882 5.8813 -4208.84 -665.748)"/><g transform="matrix(0.301434 0 0 0.301434 1176.17 334.852)" stroke="black" id="e4486_shape" style="vector-effect: non-scaling-stroke; stroke-width: 1px;" fill="khaki"><path d="M120.966 111.302l5.828-52.444c0.644-5.792-3.891-10.858-9.718-10.858h-21.076c0 0 0-16 0-40 0 0 0-8-8-8s-8 8-8 8-8 40-24 40c-8 0-16 0-16 0v64c0 0 8 0 16 0s16 8 32 8h23.249c4.982 0 9.167-3.746 9.717-8.698z" id="e4486_path" fill="green"/><path d="M31.999999999996817,110.22199999999954v-60.444c0,-5.4,-4.378,-9.778,-9.778,-9.778h-22.222v80h22.222c5.4,0,9.778,-4.378,9.778,-9.778ZM15.999999999996817,111.99999999999955c-4.4190000000000005,0,-8,-3.581,-8,-8s3.581,-8,8,-8s8,3.581,8,8s-3.581,8,-8,8Z" id="e4487_path"/></g><text fill="black" x="2489.14" y="1076.77" id="e4487_texte" style="font-family: Arial; font-size: 20px;" transform="matrix(0.5344 0 0 0.5344 -162.295 -192.241)">all tests pass</text><path d="M-125.22783330847724,220.45993288781747l-1.5625,-1.25h1.25a8,8,0,0,1,6,-6.25a2,2,0,0,0,0.625,3.125a4.6,4.6,0,0,0,-5.875,3.125h1.25Z" id="e4521_shape" style="vector-effect: non-scaling-stroke; stroke-width: 1px;" fill="khaki" transform="matrix(-2.62361 -0.0733678 0.0733678 -2.62361 844.873 957.518)"/><g transform="matrix(0.339747 0 0 0.339747 1174 239.178)" stroke="black" id="e4582_shape" style="vector-effect: non-scaling-stroke; stroke-width: 1px;" fill="khaki"><path d="M72 0v56h56c0-30.928-25.072-56-56-56zM80 48v-39.333c20.070 3.381 35.952 19.263 39.333 39.333h-39.333z" fill="green"/><path d="M0 72c0 30.928 25.072 56 56 56s56-25.072 56-56h-56v-56c-30.928 0-56 25.072-56 56z"/></g><path d="M82.0042051150822,-218.11564168182542l1.25,1.25a1,1,0,0,0,1.25,-1.25l-2.5,-3.75a2,2,0,0,0,-2.5,0l-2.5,3.75a1,1,0,0,0,1.25,1.25l1.25,-1.25v3.125a1,1,0,0,0,2.5,0Z" id="e4679_shape" style="vector-effect: non-scaling-stroke; stroke-width: 1px;" fill="khaki" transform="matrix(3.25198 -0.095605 0.095605 3.25198 953.326 1035.05)"/><text fill="black" x="2476.24" y="26.2365" id="e4714_texte" style="font-family: Arial; font-size: 20px;" transform="matrix(0.477523 0 0 0.477523 -69.3059 281.973)">merge develop branch to master</text><path d="M81.46380794427095,-249.8433509131217l1.25,1.25a1,1,0,0,0,1.25,-1.25l-2.5,-3.75a2,2,0,0,0,-2.5,0l-2.5,3.75a1,1,0,0,0,1.25,1.25l1.25,-1.25v3.125a1,1,0,0,0,2.5,0Z" id="e4768_shape" style="vector-effect: non-scaling-stroke; stroke-width: 1px;" fill="khaki" transform="matrix(3.25198 -0.095605 0.095605 3.25198 953.326 1035.05)"/><path d="M73.82178125876521,54.65346090359901l80,-56l-64,64v32l16.842,-23.579000000000008l31.158,15.579000000000008l32,-104l-128,56Z" stroke="black" id="e4782_shape" style="vector-effect: non-scaling-stroke; stroke-width: 1px;" fill="khaki" transform="matrix(0.57191 0 0 0.57191 1129.06 124.072)"/><text fill="black" x="2612.99" y="-316.795" id="e4824_texte" style="font-family: Arial; font-size: 20px;" transform="matrix(0.677157 0 0 0.677157 -599.976 407.868)">release</text><path d="M-15.017884789859703,25.968536893659l1.25,1.25a1,1,0,0,0,1.25,-1.25l-2.5,-3.75a2,2,0,0,0,-2.5,0l-2.5,3.75a1,1,0,0,0,1.25,1.25l1.25,-1.25v3.125a1,1,0,0,0,2.5,0Z" id="e154_shape" style="vector-effect: non-scaling-stroke; stroke-width: 1px; stroke: none;" fill="khaki" transform="matrix(0.0574956 3.25287 -3.25287 0.0574956 267.744 106.01)"/><g transform="matrix(0.35809 0 0 0.35809 319.545 391.364)" stroke="black" id="e560_shape" style="vector-effect: non-scaling-stroke; stroke-width: 1px;" fill="khaki"><path d="M8.719 40.643c-3.131 7.401-4.719 15.261-4.719 23.357s1.588 15.957 4.719 23.357c3.022 7.147 7.348 13.562 12.855 19.069s11.923 9.833 19.069 12.855c1.018 0.43 2.073 0.634 3.113 0.634 3.117 0 6.081-1.834 7.371-4.886 1.722-4.069-0.182-8.763-4.252-10.484-5.239-2.216-9.945-5.389-13.989-9.433s-7.216-8.749-9.432-13.989c-2.293-5.419-3.456-11.18-3.456-17.124s1.163-11.705 3.455-17.124c2.216-5.239 5.389-9.945 9.431-13.987 0 0 0 0 0.001-0.001l23.113 23.113v-56h-56l21.573 21.573c0 0 0 0 0 0-5.508 5.508-9.832 11.924-12.854 19.069z"/><path d="M106.427 106.34c5.507-5.508 9.833-11.924 12.854-19.069 3.131-7.402 4.719-15.26 4.719-23.357s-1.588-15.956-4.719-23.357c-3.022-7.147-7.347-13.562-12.855-19.069s-11.924-9.833-19.069-12.855c-4.067-1.722-8.763 0.181-10.484 4.252s0.182 8.763 4.251 10.485c5.239 2.216 9.945 5.389 13.989 9.433s7.216 8.749 9.432 13.989c2.293 5.419 3.455 11.181 3.455 17.124s-1.163 11.705-3.455 17.124c-2.215 5.238-5.389 9.945-9.431 13.987-0.015 0.015-0.030 0.028-0.045 0.043l-23.067-23.069v56h56l-21.618-21.618c0.015-0.014 0.030-0.028 0.044-0.043z"/></g><text fill="black" x="321.085" y="455.654" id="e586_texte" style="font-family: Arial; font-size: 20px;" transform="matrix(0.524187 0 0 0.524187 154.263 211.468)">prioritise</text><path d="M91.88787878966147,-217.18881458701554l1.25,1.25a1,1,0,0,0,1.25,-1.25l-2.5,-3.75a2,2,0,0,0,-2.5,0l-2.5,3.75a1,1,0,0,0,1.25,1.25l1.25,-1.25v3.125a1,1,0,0,0,2.5,0Z" id="e789_shape" style="vector-effect: non-scaling-stroke; stroke-width: 1px;" fill="khaki" transform="matrix(0.0574956 3.25287 -3.25287 0.0574956 279.672 243.69)"/><path d="M-139.29895213489783,-7.249213384237471l1.25,1.25a1,1,0,0,0,1.25,-1.25l-2.5,-3.75a2,2,0,0,0,-2.5,0l-2.5,3.75a1,1,0,0,0,1.25,1.25l1.25,-1.25v3.125a1,1,0,0,0,2.5,0Z" id="e1337_shape" style="vector-effect: non-scaling-stroke; stroke-width: 1px;" fill="khaki" transform="matrix(-3.25324 0.0313445 -0.0313445 -3.25324 298.626 262.816)"/><g transform="matrix(0.252969 0 0 0.252969 116.095 97.7472)" stroke="black" id="e142_shape" style="vector-effect: non-scaling-stroke; stroke-width: 1px; fill: none;"><path d="M24.043 58.233c-0.631 13.205 5.858 24.94 15.957 31.701v14.066h40v-14.066c9.647-6.458 16-17.453 16-29.934 0-20.264-16.742-36.617-37.148-35.982-18.625 0.579-33.919 15.603-34.809 34.215z" fill="yellow"/><path d="M40 112.16c0 8.749 7.091 15.84 15.84 15.84h8.32c8.749 0 15.84-7.091 15.84-15.84v-0.16h-40v0.16z"/><path d="M64 4c0 2.209-1.791 4-4 4s-4-1.791-4-4c0-2.209 1.791-4 4-4s4 1.791 4 4z"/><path d="M120 60c0 2.209-1.791 4-4 4s-4-1.791-4-4c0-2.209 1.791-4 4-4s4 1.791 4 4z"/><path d="M8 60c0 2.209-1.791 4-4 4s-4-1.791-4-4c0-2.209 1.791-4 4-4s4 1.791 4 4z"/><path d="M103.598 20.402c0 2.209-1.791 4-4 4s-4-1.791-4-4c0-2.209 1.791-4 4-4s4 1.791 4 4z"/><path d="M24.402 99.598c0 2.209-1.791 4-4 4s-4-1.791-4-4c0-2.209 1.791-4 4-4s4 1.791 4 4z"/><path d="M24.402 20.402c0 2.209-1.791 4-4 4s-4-1.791-4-4c0-2.209 1.791-4 4-4s4 1.791 4 4z"/><path d="M103.598 99.598c0 2.209-1.791 4-4 4s-4-1.791-4-4c0-2.209 1.791-4 4-4s4 1.791 4 4z"/></g><g transform="matrix(0.174013 0 0 0.174013 121.456 157.063)" stroke="black" id="e272_shape" style="vector-effect: non-scaling-stroke; stroke-width: 1px;" fill="khaki"/><g transform="matrix(0.252969 0 0 0.252969 116.095 143.209)" stroke="black" id="e273_shape" style="vector-effect: non-scaling-stroke; stroke-width: 1px; fill: none;"><path d="M24.043 58.233c-0.631 13.205 5.858 24.94 15.957 31.701v14.066h40v-14.066c9.647-6.458 16-17.453 16-29.934 0-20.264-16.742-36.617-37.148-35.982-18.625 0.579-33.919 15.603-34.809 34.215z" id="e273_path" fill="yellow"/><path d="M40 112.16c0 8.749 7.091 15.84 15.84 15.84h8.32c8.749 0 15.84-7.091 15.84-15.84v-0.16h-40v0.16z" id="e274_path"/><path d="M64 4c0 2.209-1.791 4-4 4s-4-1.791-4-4c0-2.209 1.791-4 4-4s4 1.791 4 4z" id="e275_path"/><path d="M120 60c0 2.209-1.791 4-4 4s-4-1.791-4-4c0-2.209 1.791-4 4-4s4 1.791 4 4z" id="e276_path"/><path d="M8 60c0 2.209-1.791 4-4 4s-4-1.791-4-4c0-2.209 1.791-4 4-4s4 1.791 4 4z" id="e277_path"/><path d="M103.598 20.402c0 2.209-1.791 4-4 4s-4-1.791-4-4c0-2.209 1.791-4 4-4s4 1.791 4 4z" id="e278_path"/><path d="M24.402 99.598c0 2.209-1.791 4-4 4s-4-1.791-4-4c0-2.209 1.791-4 4-4s4 1.791 4 4z" id="e279_path"/><path d="M24.402 20.402c0 2.209-1.791 4-4 4s-4-1.791-4-4c0-2.209 1.791-4 4-4s4 1.791 4 4z" id="e280_path"/><path d="M103.598 99.598c0 2.209-1.791 4-4 4s-4-1.791-4-4c0-2.209 1.791-4 4-4s4 1.791 4 4z" id="e281_path"/></g><text fill="black" x="328.09" y="511.021" id="e2492_texte" style="font-family: Arial; font-size: 20px;" transform="matrix(0.6642 0 0 0.6642 248.266 184.358)">list</text><text fill="black" x="884.198" y="207.791" id="e3054_texte" style="font-family: Arial; font-size: 20px;" transform="matrix(0.815715 0 0 0.815715 179.419 129.77)">go back and fix</text><path d="M260.098791688436,-46.82963750624799c-2.209000000000003,0,-4,1.79099999999994,-4,4s1.7909999999999968,4,4,4c8.837000000000003,0,16,7.163000000000011,16,16v48.169000000000096c-0.5769999999999985,-0.1069999999999709,-1.1699999999999946,-0.1690000000000965,-1.7780000000000058,-0.1690000000000965h-36.44500000000001c-5.400000000000006,0,-9.778000000000006,4.377999999999929,-9.778000000000006,9.77800000000002v-1.77800000000002h-16v1.77800000000002c0,-5.400000000000091,-4.378,-9.77800000000002,-9.777999999999999,-9.77800000000002h-36.444c-0.6080000000000044,0,-1.2010000000000005,0.06300000000010192,-1.7779999999999987,0.1690000000000965v-48.169000000000096c0,-8.836000000000013,7.1640000000000015,-16,16,-16c2.209000000000003,0,4,-1.79099999999994,4,-4s-1.7909999999999968,-4,-4,-4c-13.255000000000003,0,-24,10.74499999999989,-24,24v94.22199999999998c0,5.400000000000091,4.378,9.77800000000002,9.777999999999999,9.77800000000002h36.444c5.3999999999999995,0,9.777999999999999,-4.377999999999929,9.777999999999999,-9.77800000000002v-30.22199999999998h16v30.22199999999998c0,5.400000000000091,4.378,9.77800000000002,9.778000000000006,9.77800000000002h36.44499999999999c5.400000000000006,0,9.778000000000006,-4.377999999999929,9.778000000000006,-9.77800000000002v-94.22199999999998c0,-13.25500000000011,-10.745000000000005,-24,-24,-24ZM204.098791688436,73.17036249375201h-40v-40h40v40ZM276.098791688436,73.17036249375201h-40v-40h40v40Z" stroke="black" id="e10_shape" style="vector-effect: non-scaling-stroke; stroke-width: 1px;" fill="brown" transform="matrix(0.318269 0 0 0.318269 971.637 488.988)"/><text fill="black" x="1046.79" y="687.383" id="e84_texte" style="font-family: Arial; font-size: 20px;" transform="matrix(0.728033 0 0 0.728033 250.527 28.3562)">test review</text><text fill="black" x="1043.8" y="707.255" id="e99_texte" style="font-family: Arial; font-size: 20px;" transform="matrix(0.728033 0 0 0.728033 250.527 28.3562)">code review</text><text fill="black" x="1046.78" y="727.128" id="e114_texte" style="font-family: Arial; font-size: 20px;" transform="matrix(0.728033 0 0 0.728033 250.527 28.3562)">pull request</text><path d="M1.1875000144724481,28.437499734723488l1.5625,-1.25h-1.25a8,8,0,0,0,-6,-6.25a2,2,0,0,1,-0.6250000000000001,3.125a4.6,4.6,0,0,1,5.875,3.125h-1.25Z" id="e295_shape" style="vector-effect: non-scaling-stroke; stroke-width: 1px;" fill="khaki" transform="matrix(4.5423 0 0 4.5423 929.337 377.985)"/><path d="M92.22285255960972,-252.9077317727246l1.25,1.25a1,1,0,0,0,1.25,-1.25l-2.5,-3.75a2,2,0,0,0,-2.5,0l-2.5,3.75a1,1,0,0,0,1.25,1.25l1.25,-1.25v3.125a1,1,0,0,0,2.5,0Z" id="e579_shape" style="vector-effect: non-scaling-stroke; stroke-width: 1px;" fill="khaki" transform="matrix(0.0574956 3.25287 -3.25287 0.0574956 279.672 243.69)"/><path d="M68.32090691643981,-168.68262076539088l1.25,1.25a1,1,0,0,0,1.25,-1.25l-2.5,-3.75a2,2,0,0,0,-2.5,0l-2.5,3.75a1,1,0,0,0,1.25,1.25l1.25,-1.25v3.125a1,1,0,0,0,2.5,0Z" id="e614_shape" style="vector-effect: non-scaling-stroke; stroke-width: 1px;" fill="khaki" transform="matrix(3.25198 -0.095605 0.095605 3.25198 953.326 1035.05)"/><g transform="matrix(0.449376 0 0 0.449376 1057.89 192.802)" stroke="black" id="e710_shape" style="vector-effect: non-scaling-stroke; stroke-width: 1px;" fill="khaki"><path d="M48 36v16c0 11.169 6.541 20.808 16 25.301v2.699c0 4.419-3.581 8-8 8h-16c-8.837 0-16 7.163-16 16v14.222c0 5.4 4.378 9.778 9.778 9.778h84.445c5.4 0 9.778-4.378 9.778-9.778v-14.222c0-8.837-7.163-16-16-16h-16c-4.419 0-8-3.581-8-8v-2.699c9.459-4.494 16-14.133 16-25.301v-16c0-15.464-12.536-28-28-28s-28 12.536-28 28z" id="e710_path" fill="seagreen"/><path d="M9.778 120h6.312c-0.059-0.585-0.090-1.178-0.090-1.778v-14.222c0-13.234 10.766-24 24-24h13.391c-8.321-6.754-13.391-17.045-13.391-28v-16c0-15.353 9.665-28.485 23.227-33.651-3.438-1.508-7.234-2.349-11.227-2.349-15.464 0-28 12.536-28 28v16c0 11.169 6.541 20.808 16 25.301v2.699c0 4.419-3.581 8-8 8h-16c-8.836 0-16 7.163-16 16v14.222c0 5.4 4.378 9.778 9.778 9.778z" id="e711_path" fill="seagreen"/></g><text fill="black" x="1099.17" y="308.562" id="e787_texte" style="font-family: Arial; font-size: 20px;" transform="matrix(0.780572 0 0 0.780572 203.168 27.2113)">CMteam</text><path d="M-12.412475780564677,-263.0232954574244l1.25,1.25a1,1,0,0,0,1.25,-1.25l-2.5,-3.75a2,2,0,0,0,-2.5,0l-2.5,3.75a1,1,0,0,0,1.25,1.25l1.25,-1.25v3.125a1,1,0,0,0,2.5,0Z" id="e870_shape" style="vector-effect: non-scaling-stroke; stroke-width: 1px;" fill="khaki" transform="matrix(2.07781 2.50343 -2.50343 2.07781 504.325 764.653)"/><path d="M10.777430641091044,-263.62063163037243l1.25,1.25a1,1,0,0,0,1.25,-1.25l-2.5,-3.75a2,2,0,0,0,-2.5,0l-2.5,3.75a1,1,0,0,0,1.25,1.25l1.25,-1.25v3.125a1,1,0,0,0,2.5,0Z" id="e896_shape" style="vector-effect: non-scaling-stroke; stroke-width: 1px;" fill="khaki" transform="matrix(-1.47805 2.89825 -2.89825 -1.47805 387.755 -157.59)"/></svg>